<svg xmlns="http://www.w3.org/2000/svg" viewBox="0 0 32 32" role="img" aria-label="Cupim Eco">
	<defs>
		<linearGradient id="leaf" x1="18%" y1="88%" x2="88%" y2="12%">
			<stop offset="0%" stop-color="#1f8c3b" />
			<stop offset="100%" stop-color="#3cca5e" />
		</linearGradient>
	</defs>
	<path
		fill="url(#leaf)"
		d="M5.5 24.5c0-8.8 5.8-17.2 13.8-18.6 5.8-1 10.8 2.2 11.7 7.8.8 5.1-2.4 10.6-8.1 13.4-4.2 2.1-9.1 1.8-12.9-1.2-2.6-2.2-4.5-5.8-4.5-1.4z"
	/>
	<path
		fill="#0f3d1c"
		d="M13.2 11.8c-1.4.8-2.4 2.4-2.3 4 .1 1.8 1.5 3.1 3.2 3.1 1.4 0 2.6-.8 3.2-2 .5-1 .5-2.2.1-3.2-.8-1.8-2.7-2.7-4.2-1.9z"
	/>
	<path fill="#3cca5e" d="M11.5 22.2c2.8 1.4 6.1 1.1 8.6-.8 1.4-1.1 2.4-2.7 2.8-4.4-2.1 1.5-4.7 2.4-7.4 2.5-1.4.1-2.8-.2-4-.7z" opacity=".35" />
</svg>
